<svg width="267" height="72" viewBox="0 0 267 72" fill="none" xmlns="http://www.w3.org/2000/svg">
<path fill-rule="evenodd" clip-rule="evenodd" d="M203.206 3.642C203.544 6.535 203.258 7.381 201.816 7.758C199.6 8.338 199.595 8.452 201.632 11.561C203.152 13.882 203.142 14.186 201.477 16.026C199.752 17.932 199.762 18 201.786 18C202.939 18 204.176 18.476 204.535 19.057C205.577 20.743 204.105 25 202.481 25C200.123 25 200.767 26.828 203.25 27.18C204.488 27.356 205.5 28.175 205.5 29C205.5 31.222 197.53 31.577 194.354 29.496C192.988 28.601 189.474 27.671 186.546 27.429C181.93 27.048 181.239 27.223 181.36 28.745C181.476 30.195 180.526 30.551 175.89 30.796C170.481 31.081 170.236 30.983 169.029 28.071C167.623 24.675 160.728 17.945 156.32 15.665C146.731 10.707 129.477 9.236 117.334 12.341C109.734 14.285 98.793 20.709 96.2 24.75L94.756 27H102.831C110.461 27 111.006 26.853 112.703 24.337C119.787 13.835 127.859 10.363 138.201 13.37C146.24 15.707 152.211 22.681 150.342 27.551C149.113 30.755 144.892 31 90.896 31C32.726 31 28.462 30.688 27.375 26.359C25.205 17.713 38.614 10.029 50.779 12.947C55.926 14.182 63 19.152 63 21.534C63 22.297 63.985 23.84 65.189 24.961C66.981 26.631 68.712 27 74.757 27H82.136L80.002 24.002C77.135 19.976 70.219 15.343 63.233 12.767C55.229 9.816 37.117 9.642 28.598 12.435C18.202 15.843 12.792 23.005 16.035 29.066C16.974 30.82 16.718 31 13.285 30.995C9.359 30.99 0 33.873 0 35.087C0 36.44 9.033 40 12.464 40C15.766 40 15.92 40.151 15.378 42.862C14.193 48.784 22.114 57.64 30.792 60.096C41.361 63.087 58.853 61.177 69.192 55.902C73.567 53.67 79.642 48.537 81.073 45.863C82.002 44.128 81.588 44 75.035 44C67.413 44 66.869 44.309 62.677 51C58.06 58.368 44.748 61.366 35.5 57.119C29.439 54.336 25.192 48.268 26.649 44.472C28.198 40.435 31.655 40 62.223 40H91.545L93.441 43.52C101.477 58.442 123.835 65.541 145.415 60.022C149.67 58.934 154.836 57.096 156.896 55.938L160.642 53.833L164.466 55.981C168.684 58.35 178 59.92 178 58.262C178 57.702 177.252 56.627 176.337 55.872C173.5 53.53 170.94 46.552 171.638 43.062C172.249 40.004 172.42 39.911 176.885 40.201C180.634 40.444 181.554 40.88 181.79 42.523C182.038 44.255 182.684 44.494 186.29 44.187C188.605 43.991 192.33 42.968 194.566 41.915C196.802 40.862 199.353 40 200.234 40C205.173 40 206.783 43.514 202.353 44.626L199.707 45.29L202.353 46.677C205.479 48.315 205.816 51.473 203.051 53.2C201.667 54.065 201.395 54.771 202.114 55.637C202.812 56.478 202.641 57.794 201.563 59.879C199.623 63.63 199.621 64 201.543 64C202.712 64 203.015 64.91 202.793 67.75C202.523 71.208 202.721 71.525 205.334 71.825C206.893 72.003 208.852 71.887 209.686 71.567C210.928 71.09 210.792 70.652 208.935 69.149C206.773 67.398 206.745 67.202 208.334 64.934C209.25 63.625 210 61.395 210 59.977C210 56.801 211.706 54.95 213.869 55.78C215.36 56.352 215.358 56.195 213.849 53.892C212.485 51.811 212.067 46.4 213.084 44C213.201 43.725 213.342 42.6 213.398 41.5C213.496 39.572 214.308 39.489 235.877 39.195C256.686 38.912 258.403 39.023 260.377 40.788C262.112 42.339 262.894 42.478 264.655 41.549C266.348 40.654 266.596 40.03 265.814 38.633C265.267 37.655 265.107 35.709 265.459 34.308C265.904 32.534 265.554 31.244 264.304 30.057C262.608 28.447 262.406 28.485 260.618 30.758L258.727 33.162L236.798 32.88C224.393 32.72 214.615 32.186 214.283 31.65C213.732 30.758 212.797 24.31 212.738 21C212.723 20.175 213.049 18.712 213.462 17.75C213.995 16.51 213.759 16 212.652 16C211.638 16 210.847 14.685 210.394 12.25C210.012 10.188 209.066 7.528 208.294 6.341C207.033 4.403 207.119 3.967 209.133 2.091L211.377 0H207.079H202.781L203.206 3.642ZM148.25 41.998C152.534 44.059 152.102 49.133 147.227 54.008C137.687 63.549 120.14 61.011 114.067 49.212C112.416 46.006 113.647 43.07 117.345 41.391C121.381 39.559 144.109 40.005 148.25 41.998Z" fill="black"/>
</svg>
